<?xml version="1.0" encoding="UTF-8"?>
<!-- Sinister OS Calamares installer slideshow image. Author: RKOJ-ELENO :: 2026-05-24
     SVG fallback (Gemini quota depleted 2026-05-24T16:38Z). 800x500 Liquid
     Glass card composition with a mock Panel dashboard. -->
<svg xmlns="http://www.w3.org/2000/svg" viewBox="0 0 800 500" width="800" height="500">
  <defs>
    <linearGradient id="bgGrad" x1="0" y1="0" x2="1" y2="1">
      <stop offset="0%" stop-color="#1a1330"/>
      <stop offset="100%" stop-color="#0a0717"/>
    </linearGradient>
    <linearGradient id="cardGrad" x1="0" y1="0" x2="0" y2="1">
      <stop offset="0%" stop-color="#251a3d" stop-opacity="0.96"/>
      <stop offset="100%" stop-color="#1a1330" stop-opacity="0.92"/>
    </linearGradient>
    <linearGradient id="headerGrad" x1="0" y1="0" x2="1" y2="0">
      <stop offset="0%" stop-color="#c084fc"/>
      <stop offset="100%" stop-color="#8b5cf6"/>
    </linearGradient>
    <filter id="cardShadow"><feGaussianBlur stdDeviation="18"/></filter>
  </defs>

  <rect width="800" height="500" fill="url(#bgGrad)"/>

  <!-- Header -->
  <text x="400" y="58" text-anchor="middle"
        font-family="Segoe UI, system-ui, sans-serif"
        font-weight="700"
        font-size="28"
        letter-spacing="8"
        fill="url(#headerGrad)">SINISTER OS</text>
  <text x="400" y="82" text-anchor="middle"
        font-family="Segoe UI, system-ui, sans-serif"
        font-weight="400"
        font-size="12"
        letter-spacing="3"
        fill="#94a3b8">YOUR WORKSTATION, REDEFINED</text>

  <!-- Card shadow + card -->
  <rect x="60" y="120" width="680" height="340" rx="16" fill="#000" opacity="0.55" filter="url(#cardShadow)"/>
  <rect x="60" y="120" width="680" height="340" rx="16" fill="url(#cardGrad)" stroke="#c084fc" stroke-opacity="0.18" stroke-width="1"/>
  <rect x="60" y="120" width="680" height="2" fill="#fff" opacity="0.08"/>

  <!-- Sidebar nav silhouette -->
  <rect x="76" y="142" width="120" height="302" rx="10" fill="#0e0a1f" opacity="0.55"/>
  <circle cx="96" cy="170" r="8" fill="#c084fc"/>
  <rect x="112" y="166" width="64" height="8" rx="3" fill="#e9d5ff" opacity="0.55"/>
  <rect x="92" y="194" width="92" height="6" rx="3" fill="#cbd5e1" opacity="0.30"/>
  <rect x="92" y="212" width="76" height="6" rx="3" fill="#cbd5e1" opacity="0.30"/>
  <rect x="92" y="230" width="88" height="6" rx="3" fill="#cbd5e1" opacity="0.30"/>
  <rect x="92" y="248" width="70" height="6" rx="3" fill="#cbd5e1" opacity="0.30"/>
  <rect x="92" y="266" width="82" height="6" rx="3" fill="#cbd5e1" opacity="0.30"/>

  <!-- Status pills row -->
  <rect x="216" y="148" width="92" height="26" rx="13" fill="#8b5cf6" opacity="0.32"/>
  <text x="262" y="166" text-anchor="middle" font-family="sans-serif" font-size="10" fill="#e9d5ff">ONLINE</text>
  <rect x="320" y="148" width="92" height="26" rx="13" fill="#86efac" opacity="0.22"/>
  <text x="366" y="166" text-anchor="middle" font-family="sans-serif" font-size="10" fill="#86efac">HEALTHY</text>
  <rect x="424" y="148" width="92" height="26" rx="13" fill="#fde047" opacity="0.18"/>
  <text x="470" y="166" text-anchor="middle" font-family="sans-serif" font-size="10" fill="#fde047">2 QUEUED</text>

  <!-- Sparkline card -->
  <rect x="216" y="190" width="300" height="120" rx="10" fill="#0e0a1f" opacity="0.55"/>
  <rect x="232" y="206" width="80" height="8" rx="3" fill="#cbd5e1" opacity="0.45"/>
  <polyline points="232,290 260,272 288,278 316,256 344,262 372,238 400,246 428,222 456,232 484,212 500,224"
            fill="none" stroke="#c084fc" stroke-width="2.5" stroke-linejoin="round"/>
  <polyline points="232,290 260,272 288,278 316,256 344,262 372,238 400,246 428,222 456,232 484,212 500,224 500,300 232,300"
            fill="#c084fc" opacity="0.12"/>

  <!-- Right stat card -->
  <rect x="528" y="190" width="196" height="120" rx="10" fill="#0e0a1f" opacity="0.55"/>
  <text x="544" y="216" font-family="sans-serif" font-size="11" fill="#94a3b8" letter-spacing="2">UPTIME</text>
  <text x="544" y="258" font-family="Segoe UI, sans-serif" font-weight="700" font-size="32" fill="#e9d5ff">99.97%</text>
  <text x="544" y="284" font-family="sans-serif" font-size="10" fill="#86efac">+0.04 vs last week</text>

  <!-- Footer service row -->
  <rect x="216" y="326" width="500" height="118" rx="10" fill="#0e0a1f" opacity="0.45"/>
  <circle cx="240" cy="356" r="6" fill="#86efac"/>
  <rect x="256" y="352" width="120" height="8" rx="3" fill="#e9d5ff" opacity="0.7"/>
  <rect x="256" y="368" width="200" height="6" rx="3" fill="#cbd5e1" opacity="0.30"/>
  <circle cx="240" cy="390" r="6" fill="#86efac"/>
  <rect x="256" y="386" width="140" height="8" rx="3" fill="#e9d5ff" opacity="0.7"/>
  <rect x="256" y="402" width="180" height="6" rx="3" fill="#cbd5e1" opacity="0.30"/>
  <circle cx="240" cy="424" r="6" fill="#fde047"/>
  <rect x="256" y="420" width="110" height="8" rx="3" fill="#e9d5ff" opacity="0.7"/>
  <rect x="256" y="436" width="160" height="6" rx="3" fill="#cbd5e1" opacity="0.30"/>

  <text x="400" y="488" text-anchor="middle"
        font-family="sans-serif" font-size="10" letter-spacing="2"
        fill="#94a3b8">EVE-DRIVEN  ·  CONTAINER-NATIVE  ·  YOUR DATA, YOUR HARDWARE</text>
</svg>
